<svg width="50" height="50" viewBox="0 0 50 50" fill="none" xmlns="http://www.w3.org/2000/svg">
<g clip-path="url(#clip0_2_19)">
<g clip-path="url(#clip1_2_19)">
<path d="M25 50C38.8071 50 50 38.8071 50 25C50 11.1929 38.8071 0 25 0C11.1929 0 0 11.1929 0 25C0 38.8071 11.1929 50 25 50Z" fill="#3E064F"/>
<path d="M25 44.285C35.6508 44.285 44.285 35.6508 44.285 25C44.285 14.3492 35.6508 5.71495 25 5.71495C14.3492 5.71495 5.71495 14.3492 5.71495 25C5.71495 35.6508 14.3492 44.285 25 44.285Z" fill="#FFC466"/>
<path d="M40.0459 17.1696C42.4421 23.7524 41.2681 31.5782 29.348 35.9164C17.4286 40.2546 11.499 35.0149 9.10278 28.4321C7.8634 25.0263 13.7855 19.7445 22.3298 16.6344C30.8741 13.5243 38.8058 13.7638 40.0452 17.1696H40.0459Z" fill="#C7676A"/>
<path d="M21.3742 37.929C19.1935 37.929 17.2207 37.5034 15.4686 36.6513C12.4276 35.1733 10.0884 32.3807 8.70417 28.577C7.3642 24.8956 13.2856 19.4742 22.1849 16.235C26.367 14.7126 30.5415 13.9312 33.9399 14.034C37.4718 14.1406 39.7817 15.2028 40.4446 17.024C41.8288 20.8277 41.8318 24.47 40.4528 27.5576C38.7645 31.3365 35.0772 34.2829 29.4928 36.315C26.5381 37.3908 23.8244 37.9283 21.3734 37.929H21.3742ZM33.3348 14.8748C30.1504 14.8748 26.3227 15.6337 22.4755 17.0337C14.3058 20.0072 8.36486 25.1606 9.50214 28.2865C10.8098 31.8793 13.0011 34.5074 15.8402 35.8872C19.3474 37.592 23.8432 37.4673 29.2031 35.5171C42.3168 30.7442 41.3754 22.0641 39.6466 17.3145C39.1181 15.8634 37.0289 14.9769 33.9144 14.883C33.7237 14.877 33.53 14.8748 33.3348 14.8748Z" fill="#3E064F"/>
<path d="M35.3737 29.0657C36.4697 32.0774 37.0605 35.2468 30.0348 37.8044C23.0092 40.3612 21.4237 37.5537 20.3277 34.5419C19.761 32.9843 21.7878 30.8155 26.8242 28.9824C31.8605 27.1492 34.8069 27.5073 35.3737 29.0657Z" fill="#AAAAAA"/>
<path d="M25.3753 39.2262C24.3582 39.2262 23.4889 39.0288 22.757 38.6354C21.1618 37.7774 20.4606 36.1476 19.9291 34.6876C19.6799 34.0037 19.6972 32.9047 21.1895 31.5512C22.3576 30.492 24.2561 29.4658 26.6785 28.5838C29.101 27.7017 31.2157 27.2678 32.7906 27.3286C34.8039 27.4059 35.5231 28.2369 35.7723 28.9208C36.3038 30.3816 36.815 32.0804 36.1439 33.7627C35.4315 35.5493 33.4805 37.0019 30.1797 38.203C28.3053 38.8854 26.7116 39.2254 25.3746 39.2254L25.3753 39.2262ZM32.4896 28.1709C31.1684 28.1709 29.3314 28.5222 26.9698 29.3817C22.0491 31.1729 20.2887 33.1907 20.7271 34.3963C21.8426 37.4606 23.3012 39.8027 29.89 37.405C32.9505 36.291 34.7386 34.9968 35.3557 33.4482C35.9157 32.0429 35.4525 30.5243 34.9751 29.2113C34.7469 28.5845 33.9211 28.1709 32.4896 28.1709Z" fill="#3E064F"/>
<path d="M34.5021 29.1821C35.481 31.8703 36.008 34.7003 29.7361 36.9832C23.4641 39.266 22.0491 36.7595 21.0709 34.0713C20.565 32.6802 22.3741 30.745 26.8699 29.1085C31.3658 27.472 33.9962 27.7918 34.5021 29.1828V29.1821Z" fill="#8C8C8C"/>
<path d="M11.0966 30.3464C11.1574 28.9576 12.0627 27.3106 13.709 25.6576C16.0271 23.3297 19.4975 21.2496 23.4821 19.7993C26.8324 18.5802 30.191 17.9353 33.1201 17.9353C33.6749 17.9353 34.2139 17.9586 34.7349 18.0051C37.0582 18.2131 38.8103 18.8932 39.7494 19.9179C40.0617 19.27 40.2209 18.644 40.2081 18.0577C36.9374 15.6352 30.1377 15.5692 22.9011 18.2033C15.6645 20.8375 10.4983 25.259 9.54944 29.2166C9.91727 29.6738 10.4405 30.0506 11.0966 30.3471V30.3464Z" fill="#3E064F"/>
<path d="M26.8189 28.9674C33.9271 26.3805 39.2194 22.29 40.0842 19.0276C37.2999 16.476 30.3974 16.3431 23.1796 18.9698C15.9625 21.5964 10.7603 26.1358 10.2671 29.8802C13.0274 31.8237 19.7099 31.555 26.8182 28.9674H26.8189Z" fill="#FFEBB1"/>
<path d="M26.8189 28.9674C33.5803 26.5066 38.6985 22.6856 39.9266 19.5103C37.4321 16.8979 30.5551 16.7477 23.329 19.3781C16.1029 22.0085 10.9307 26.5434 10.6995 30.1489C13.6812 31.7922 20.0575 31.4289 26.8197 28.9681L26.8189 28.9674Z" fill="#FFDA82"/>
<path d="M15.9483 29.4103C12.7961 29.4103 10.8233 28.5657 10.2408 26.9645C8.95039 23.4183 15.4641 18.8804 22.2487 16.4114C25.8663 15.0947 29.4621 14.3561 32.3725 14.332C35.6177 14.305 37.6385 15.1503 38.2308 16.7778C39.5212 20.324 33.0075 24.8619 26.2229 27.3309C22.6053 28.6476 19.0095 29.3862 16.0991 29.4103C16.0489 29.4103 15.9986 29.4103 15.9483 29.4103ZM32.5128 15.973C32.4708 15.973 32.4288 15.973 32.386 15.973C29.6572 15.9956 26.2566 16.6997 22.8103 17.9541C15.0955 20.7616 11.1889 24.7665 11.7842 26.4015C12.098 27.2626 13.7488 27.7865 16.0849 27.7663C18.8136 27.7437 22.2142 27.0396 25.6606 25.7852C33.3754 22.9777 37.2819 18.9728 36.6866 17.3378C36.3789 16.4918 34.7844 15.9723 32.5128 15.9723V15.973Z" fill="#3E064F"/>
<path d="M24.91 23.7227C30.102 21.8329 33.7709 18.8173 33.1048 16.987C32.4386 15.1567 27.6896 15.2049 22.4975 17.0946C17.3055 18.9844 13.6366 22.0001 14.3027 23.8304C14.9689 25.6606 19.7179 25.6124 24.91 23.7227Z" fill="#FFDA82"/>
<path d="M26.9931 22.8696C27.1627 22.7915 27.3301 22.7127 27.4953 22.6331Z" fill="#FFDA82"/>
<path d="M26.9931 23.2944C26.8324 23.2944 26.6785 23.2029 26.6065 23.0467C26.5089 22.8335 26.602 22.5813 26.8151 22.4837C26.9826 22.4071 27.147 22.3298 27.3091 22.251C27.52 22.1489 27.7745 22.2367 27.8766 22.4477C27.9787 22.6586 27.8909 22.9131 27.6799 23.0152C27.5125 23.0963 27.3421 23.1766 27.1702 23.2554C27.1132 23.2817 27.0524 23.2944 26.9931 23.2944Z" fill="#3E064F"/>
<path d="M15.9678 28.9951C13.0326 28.9951 11.1326 28.2182 10.6199 26.8076C10.0989 25.3753 11.0883 23.5309 13.4072 21.6144C15.6165 19.788 18.8024 18.0652 22.3771 16.7643C26.0112 15.4415 29.6024 14.7134 32.4911 14.7134C35.3797 14.7134 37.3262 15.4903 37.8397 16.9009C38.3607 18.3332 37.3713 20.1776 35.0524 22.0941C32.8431 23.9205 29.6572 25.6433 26.0825 26.9443C22.4492 28.267 18.8572 28.9951 15.9685 28.9951H15.9678Z" fill="#FFEBB1"/>
<path d="M32.4911 15.1255C35.129 15.1255 36.9869 15.7628 37.4523 17.042C38.3974 19.6394 33.244 23.9002 25.9414 26.5584C22.2345 27.9074 18.6868 28.5845 15.9678 28.5845C13.2488 28.5845 11.4719 27.9472 11.0065 26.668C10.0614 24.0707 15.2148 19.8098 22.5182 17.1516C26.2251 15.8026 29.7728 15.1255 32.4918 15.1255M32.4918 14.3028C29.5566 14.3028 25.9143 15.0399 22.2367 16.3784C18.6184 17.6951 15.3898 19.4427 13.1452 21.2984C12.0117 22.2352 11.1784 23.1601 10.6665 24.0481C9.91277 25.3573 10.0149 26.3482 10.2333 26.9488C10.4488 27.5411 10.9968 28.3563 12.384 28.8758C13.3246 29.2278 14.5302 29.4065 15.9678 29.4065C18.903 29.4065 22.5453 28.6693 26.2229 27.3309C29.8412 26.0142 33.0698 24.2666 35.3144 22.4109C36.4479 21.474 37.2812 20.5492 37.7931 19.6611C38.5468 18.3519 38.4447 17.361 38.2263 16.7605C38.0108 16.1682 37.4628 15.353 36.0756 14.8335C35.135 14.4814 33.9294 14.3028 32.4918 14.3028Z" fill="#3E064F"/>
<path d="M25.7866 26.131C32.816 23.5725 37.818 19.5852 36.959 17.2251C36.1 14.865 29.7052 15.0258 22.6759 17.5842C15.6465 20.1427 10.6445 24.13 11.5035 26.4901C12.3625 28.8503 18.7573 28.6895 25.7866 26.131Z" fill="#FFDA82"/>
<path d="M12.0304 22.4387C11.5643 22.4387 11.1439 22.1992 10.9052 21.7976C10.6665 21.3967 10.6574 20.9118 10.8804 20.5019L14.5295 13.7885C14.7592 13.3659 15.2006 13.1039 15.6818 13.1039C16.163 13.1039 16.5593 13.3381 16.7995 13.73L20.7894 20.2467C21.0371 20.6505 21.0492 21.1407 20.8232 21.5574C20.5972 21.974 20.1791 22.23 19.7054 22.242L12.0665 22.4387H12.0312H12.0304Z" fill="#C38D44"/>
<path d="M15.6818 13.5281C15.9723 13.5281 16.2636 13.6684 16.437 13.9514L20.4268 20.4681C20.7827 21.0499 20.3758 21.7991 19.6942 21.8163L12.0552 22.013C12.047 22.013 12.0395 22.013 12.0312 22.013C11.3631 22.013 10.9322 21.2961 11.2542 20.7038L14.9033 13.9905C15.0707 13.6827 15.3762 13.5273 15.6825 13.5273M15.6825 12.6783C15.0459 12.6783 14.4612 13.0259 14.1571 13.5851L10.5081 20.2985C10.213 20.8412 10.2251 21.483 10.5411 22.0138C10.8571 22.5453 11.4141 22.8628 12.0319 22.8628C12.047 22.8628 12.0627 22.8628 12.0777 22.8628L19.7167 22.6661C20.3443 22.6504 20.8975 22.311 21.197 21.76C21.4966 21.209 21.48 20.5605 21.152 20.0252L17.1621 13.5085C16.8438 12.9891 16.2913 12.679 15.6825 12.679V12.6783Z" fill="#3E064F"/>
<path d="M15.904 19.1191C14.4987 20.0943 13.5251 21.0994 13.1655 21.9845L19.6934 21.8163C20.375 21.7991 20.7827 21.0499 20.4261 20.4681L17.8482 16.2575C16.8776 17.1493 16.1892 18.1125 15.904 19.1191Z" fill="#B27E38"/>
<path d="M28.9028 21.8914C29.5229 21.5371 30.0896 21.1715 30.5941 20.8037C32.4753 19.4307 33.4805 18.0194 33.1044 16.9865C32.8822 16.3761 32.2051 15.9745 31.2089 15.7809C30.7427 15.0985 30.0889 14.5475 29.2616 14.2067C27.499 13.4815 28.8713 11.6476 27.7625 11.2287C26.9548 10.9239 25.4955 13.1167 22.9386 14.3823C19.9907 15.8424 17.7026 17.7289 17.1156 19.797C15.0407 21.2368 13.9057 22.7427 14.302 23.8304C14.9679 25.6606 19.7174 25.6126 24.9092 23.7231" fill="#FFDA82"/>
<path d="M17.7904 25.5968C15.6623 25.5968 14.284 25.0233 13.9026 23.9753C13.4485 22.7277 14.4597 21.1535 16.7515 19.5335C17.5532 17.0232 20.4426 15.1443 22.7502 14.0017C23.9535 13.4057 24.9107 12.5912 25.6794 11.9366C26.5997 11.1529 27.2648 10.5869 27.9119 10.8316C28.6738 11.1199 28.6821 11.8555 28.6881 12.3923C28.6956 13.0889 28.7354 13.5311 29.423 13.8141C30.239 14.1496 30.9394 14.6961 31.4589 15.3995C32.8214 15.7058 33.3236 16.3476 33.5037 16.8416C33.9421 18.0464 32.9978 19.5756 30.8448 21.1475C30.3253 21.5266 29.7428 21.9012 29.1137 22.2608C28.9103 22.3771 28.6506 22.3065 28.5342 22.1031C28.4179 21.8997 28.4884 21.6399 28.6919 21.5236C29.2932 21.1798 29.8487 20.8224 30.3434 20.4614C32.0849 19.1905 32.9903 17.9143 32.705 17.1321C32.5016 16.5743 31.7351 16.3161 31.1278 16.1982C31.0182 16.1772 30.9214 16.1134 30.8583 16.0211C30.4184 15.377 29.8269 14.8988 29.1002 14.6C27.8571 14.0888 27.8466 13.0739 27.8391 12.402C27.8331 11.8195 27.797 11.6964 27.6124 11.6266C27.4352 11.5598 26.7101 12.1761 26.2304 12.5844C25.4256 13.2691 24.425 14.1211 23.1278 14.7637C20.0207 16.3026 18.0307 18.1312 17.5254 19.9141C17.4984 20.0087 17.4399 20.0913 17.3588 20.1468C15.416 21.4951 14.3981 22.8508 14.7021 23.6855C15.2043 25.0646 19.46 25.2552 24.765 23.3245C24.985 23.2441 25.229 23.3575 25.3093 23.5782C25.3896 23.7989 25.2762 24.0421 25.0555 24.1224C22.5002 25.0525 19.9637 25.5758 17.9135 25.5968C17.8723 25.5968 17.8317 25.5968 17.7912 25.5968H17.7904Z" fill="#3E064F"/>
<path d="M16.181 23.5159C16.4094 23.5159 16.5946 23.3307 16.5946 23.1023C16.5946 22.8738 16.4094 22.6886 16.181 22.6886C15.9525 22.6886 15.7673 22.8738 15.7673 23.1023C15.7673 23.3307 15.9525 23.5159 16.181 23.5159Z" fill="#FFC466"/>
<path d="M21.6069 26.9916C21.8353 26.9916 22.0205 26.8064 22.0205 26.5779C22.0205 26.3495 21.8353 26.1643 21.6069 26.1643C21.3785 26.1643 21.1933 26.3495 21.1933 26.5779C21.1933 26.8064 21.3785 26.9916 21.6069 26.9916Z" fill="#FFC466"/>
<path d="M15.7501 15.44C15.9785 15.44 16.1637 15.2549 16.1637 15.0264C16.1637 14.798 15.9785 14.6128 15.7501 14.6128C15.5216 14.6128 15.3365 14.798 15.3365 15.0264C15.3365 15.2549 15.5216 15.44 15.7501 15.44Z" fill="#E2A749"/>
<path d="M17.0713 17.3475C17.2997 17.3475 17.4849 17.1623 17.4849 16.9339C17.4849 16.7055 17.2997 16.5203 17.0713 16.5203C16.8428 16.5203 16.6577 16.7055 16.6577 16.9339C16.6577 17.1623 16.8428 17.3475 17.0713 17.3475Z" fill="#E2A749"/>
<path d="M15.0992 16.6982C15.3277 16.6982 15.5129 16.513 15.5129 16.2846C15.5129 16.0561 15.3277 15.8709 15.0992 15.8709C14.8708 15.8709 14.6856 16.0561 14.6856 16.2846C14.6856 16.513 14.8708 16.6982 15.0992 16.6982Z" fill="#E2A749"/>
<path d="M12.6295 21.0912C12.8579 21.0912 13.0431 20.906 13.0431 20.6776C13.0431 20.4491 12.8579 20.2639 12.6295 20.2639C12.4011 20.2639 12.2159 20.4491 12.2159 20.6776C12.2159 20.906 12.4011 21.0912 12.6295 21.0912Z" fill="#E2A749"/>
<path d="M17.5284 23.8312C17.7569 23.8312 17.9421 23.646 17.9421 23.4176C17.9421 23.1891 17.7569 23.0039 17.5284 23.0039C17.3 23.0039 17.1148 23.1891 17.1148 23.4176C17.1148 23.646 17.3 23.8312 17.5284 23.8312Z" fill="#FFC466"/>
<path d="M17.0105 22.4071C17.2389 22.4071 17.4241 22.222 17.4241 21.9935C17.4241 21.7651 17.2389 21.5799 17.0105 21.5799C16.782 21.5799 16.5969 21.7651 16.5969 21.9935C16.5969 22.222 16.782 22.4071 17.0105 22.4071Z" fill="#FFC466"/>
<path d="M12.4666 26.406C12.695 26.406 12.8802 26.2208 12.8802 25.9924C12.8802 25.764 12.695 25.5788 12.4666 25.5788C12.2382 25.5788 12.053 25.764 12.053 25.9924C12.053 26.2208 12.2382 26.406 12.4666 26.406Z" fill="#FFC466"/>
<path d="M19.2685 19.5433C19.2077 19.5433 19.1462 19.5298 19.0876 19.5012C18.8842 19.4014 18.7994 19.1559 18.8984 18.9525C18.9345 18.8797 19.7948 17.1516 21.8614 16.181C22.0671 16.0841 22.3118 16.1727 22.4086 16.3784C22.5055 16.5841 22.4169 16.8288 22.2112 16.9256C20.4178 17.7679 19.6454 19.2986 19.6379 19.3136C19.5658 19.4585 19.4202 19.5433 19.2685 19.5433Z" fill="#FFEBB1"/>
<path d="M27.8744 15.5399C27.8053 15.5399 27.7355 15.5226 27.6709 15.4858C27.0696 15.1428 26.8602 14.6053 26.8384 14.5452C26.7611 14.332 26.8707 14.0956 27.0839 14.0183C27.2963 13.9409 27.5305 14.049 27.6101 14.26C27.6154 14.2735 27.743 14.5805 28.0785 14.7712C28.276 14.8838 28.3443 15.1353 28.2324 15.3319C28.1566 15.4648 28.0177 15.5399 27.8744 15.5399Z" fill="#FFEBB1"/>
<path d="M18.7018 27.5013C18.4916 27.5013 18.3114 27.3406 18.2926 27.1267C18.2724 26.9007 18.439 26.7003 18.665 26.68C19.0839 26.6425 19.8841 26.5029 20.3405 26.4015C20.562 26.352 20.7819 26.4924 20.8315 26.7138C20.881 26.9353 20.7406 27.1552 20.5192 27.2048C20.0282 27.3136 19.1957 27.4585 18.7393 27.4998C18.7265 27.5013 18.7145 27.5013 18.7018 27.5013Z" fill="#FFC466"/>
<path d="M35.0914 19.9892C34.9923 19.9892 34.8925 19.9532 34.8137 19.8811C34.6463 19.728 34.6343 19.4675 34.7882 19.3001C35.5373 18.4811 35.7685 17.9894 35.5854 17.6013C35.5283 17.4797 35.3519 17.3873 35.213 17.3535C34.9923 17.3002 34.8572 17.0773 34.9105 16.8566C34.9646 16.6359 35.1868 16.5 35.4075 16.5541C35.5651 16.5923 36.0966 16.756 36.3293 17.2507C36.7632 18.1718 36.1004 19.0846 35.3947 19.8556C35.3136 19.9441 35.2025 19.9892 35.0914 19.9892Z" fill="#FFEBB1"/>
<path d="M24.8994 25.9714C24.726 25.9714 24.5646 25.8603 24.5083 25.6861C24.4385 25.4699 24.5571 25.238 24.7733 25.1681C25.2995 24.9977 25.6636 24.8641 25.8851 24.759C26.0907 24.6614 26.3355 24.7485 26.4331 24.9542C26.5306 25.1591 26.4436 25.4046 26.2379 25.5022C25.9804 25.6246 25.5953 25.7672 25.0263 25.9511C24.9842 25.9646 24.9414 25.9714 24.8994 25.9714Z" fill="#FFEBB1"/>
<path d="M23.1976 26.5539C23.0197 26.5539 22.856 26.4383 22.8035 26.2589C22.7389 26.0412 22.8636 25.8122 23.082 25.7477C23.1683 25.7222 23.2532 25.6966 23.3372 25.6704C23.5549 25.6035 23.7846 25.7252 23.8515 25.9421C23.9183 26.159 23.7967 26.3895 23.5797 26.4563C23.4926 26.4833 23.404 26.5096 23.3147 26.5359C23.2757 26.5472 23.2366 26.5532 23.1984 26.5532L23.1976 26.5539Z" fill="#FFEBB1"/>
<path d="M27.4795 21.185C27.3316 21.185 27.1882 21.1047 27.1147 20.9643C27.0096 20.7631 27.0869 20.5147 27.2881 20.4088C27.7655 20.1588 28.2084 19.9029 28.6048 19.6491C30.215 18.6154 30.6586 17.8542 30.5641 17.5945C30.486 17.3813 30.5963 17.1448 30.8095 17.0675C31.0227 16.9902 31.2592 17.0998 31.3365 17.313C31.7171 18.358 30.3021 19.5365 29.0484 20.3413C28.6318 20.6085 28.1671 20.8765 27.6687 21.1377C27.6079 21.1693 27.5426 21.185 27.478 21.185H27.4795Z" fill="#FFEBB1"/>
<path d="M26.7033 22.9746C26.873 22.8966 27.0404 22.8178 27.2055 22.7382Z" fill="#FFDA82"/>
<path d="M26.7033 23.3995C26.5427 23.3995 26.3888 23.308 26.3167 23.1518C26.2191 22.9386 26.3122 22.6864 26.5254 22.5888C26.6928 22.5122 26.8572 22.4349 27.0193 22.3561C27.2303 22.254 27.4848 22.3418 27.5869 22.5528C27.6889 22.7637 27.6011 23.0182 27.3902 23.1203C27.2228 23.2014 27.0524 23.2817 26.8805 23.3605C26.8234 23.3868 26.7626 23.3995 26.7033 23.3995Z" fill="#3E064F"/>
<path d="M30.8073 25.7574C30.6474 25.5157 30.4304 25.3063 30.1617 25.1524C29.2399 24.6232 28.0635 24.9414 27.5343 25.8633C27.0051 26.7851 27.3234 27.9614 28.2452 28.4907C28.5139 28.6446 28.8037 28.7264 29.0927 28.7429C28.5687 29.664 28.8878 30.8358 29.8074 31.3635C30.7292 31.8928 31.9055 31.5745 32.4348 30.6526C32.8071 30.0048 32.7598 29.2308 32.3792 28.6446C33.0773 28.6776 33.7695 28.3285 34.1411 27.6807C34.6703 26.7588 34.352 25.5825 33.4302 25.0533C32.5106 24.5256 31.338 24.8408 30.8065 25.7574H30.8073Z" fill="#00B76A"/>
<path d="M30.7622 32.0437C30.3659 32.0437 29.9643 31.9431 29.5964 31.7321C28.6483 31.1879 28.2227 30.0746 28.5027 29.0649C28.3405 29.0147 28.1844 28.9456 28.0335 28.8593C26.9097 28.2144 26.5209 26.7754 27.1657 25.6516C27.478 25.1073 27.984 24.717 28.5898 24.5533C29.1956 24.3897 29.8291 24.4715 30.3734 24.7838C30.5235 24.8701 30.6617 24.9707 30.787 25.0848C31.5174 24.3341 32.6937 24.1405 33.6419 24.6847C34.1861 24.997 34.5765 25.503 34.7401 26.1088C34.9038 26.7146 34.8219 27.3481 34.5097 27.8924C34.1801 28.4659 33.6366 28.863 33.0135 29.0094C33.2012 29.6212 33.1322 30.2908 32.8034 30.8643C32.3695 31.6203 31.5767 32.0437 30.7622 32.0437ZM29.2061 25.3213C29.0747 25.3213 28.9426 25.3386 28.812 25.3738C28.4254 25.4782 28.1026 25.7274 27.9029 26.075C27.4908 26.7926 27.7392 27.7107 28.4569 28.1228C28.6611 28.2399 28.8833 28.306 29.1175 28.3195C29.2639 28.3278 29.396 28.4111 29.4666 28.5402C29.5371 28.6693 29.5356 28.8255 29.4628 28.9531C29.0559 29.6692 29.3052 30.5851 30.0198 30.9957C30.7367 31.4078 31.6556 31.1594 32.0677 30.4417C32.3492 29.9515 32.3327 29.3517 32.0241 28.8765C31.9371 28.7429 31.9326 28.5717 32.0121 28.4336C32.0917 28.2955 32.2426 28.2137 32.401 28.2212C32.967 28.2482 33.4932 27.9599 33.7747 27.4697C33.9744 27.1222 34.0262 26.7176 33.9219 26.331C33.8175 25.9444 33.5683 25.6216 33.2207 25.4219C32.5068 25.012 31.5895 25.2582 31.1766 25.9706C31.1031 26.0975 30.9687 26.1778 30.8215 26.1823C30.6782 26.1868 30.5363 26.1148 30.4545 25.9924C30.3246 25.7965 30.1557 25.6381 29.9515 25.521C29.721 25.3889 29.4658 25.3213 29.2068 25.3213H29.2061Z" fill="#3E064F"/>
<mask id="mask0_2_19" style="mask-type:luminance" maskUnits="userSpaceOnUse" x="27" y="24" width="8" height="8">
<path d="M30.8073 25.7574C30.6474 25.5157 30.4304 25.3063 30.1617 25.1524C29.2399 24.6232 28.0635 24.9414 27.5343 25.8633C27.0051 26.7851 27.3234 27.9614 28.2452 28.4907C28.5139 28.6446 28.8037 28.7264 29.0927 28.7429C28.5687 29.664 28.8878 30.8358 29.8074 31.3635C30.7292 31.8928 31.9055 31.5745 32.4348 30.6526C32.8071 30.0048 32.7598 29.2308 32.3792 28.6446C33.0773 28.6776 33.7695 28.3285 34.1411 27.6807C34.6703 26.7588 34.352 25.5825 33.4302 25.0533C32.5106 24.5256 31.338 24.8408 30.8065 25.7574H30.8073Z" fill="white"/>
</mask>
<g mask="url(#mask0_2_19)">
<path d="M34.1343 27.3429C34.3362 26.5291 33.9879 25.6478 33.2245 25.2102C32.3049 24.6825 31.1323 24.9977 30.6008 25.9143C30.441 25.6726 30.224 25.4632 29.9553 25.3093C29.6632 25.1411 29.345 25.0593 29.0304 25.054C29.0282 25.0781 29.0267 25.1021 29.0252 25.1261C28.9636 26.397 29.9447 27.4772 31.2157 27.5388C32.109 27.5816 32.9077 27.1102 33.3251 26.3843C33.5015 26.7731 33.7822 27.1049 34.1336 27.3436L34.1343 27.3429Z" fill="#009F61"/>
</g>
<path d="M30.7622 32.0437C30.3659 32.0437 29.9643 31.9431 29.5964 31.7321C28.6483 31.1879 28.2227 30.0746 28.5027 29.0649C28.3405 29.0147 28.1844 28.9456 28.0335 28.8593C26.9097 28.2144 26.5209 26.7754 27.1657 25.6516C27.478 25.1073 27.984 24.717 28.5898 24.5533C29.1956 24.3897 29.8291 24.4715 30.3734 24.7838C30.5235 24.8701 30.6617 24.9707 30.787 25.0848C31.5174 24.3341 32.6937 24.1405 33.6419 24.6847C34.1861 24.997 34.5765 25.503 34.7401 26.1088C34.9038 26.7146 34.8219 27.3481 34.5097 27.8924C34.1801 28.4659 33.6366 28.863 33.0135 29.0094C33.2012 29.6212 33.1322 30.2908 32.8034 30.8643C32.3695 31.6203 31.5767 32.0437 30.7622 32.0437ZM29.2061 25.3213C29.0747 25.3213 28.9426 25.3386 28.812 25.3738C28.4254 25.4782 28.1026 25.7274 27.9029 26.075C27.4908 26.7926 27.7392 27.7107 28.4569 28.1228C28.6611 28.2399 28.8833 28.306 29.1175 28.3195C29.2639 28.3278 29.396 28.4111 29.4666 28.5402C29.5371 28.6693 29.5356 28.8255 29.4628 28.9531C29.0559 29.6692 29.3052 30.5851 30.0198 30.9957C30.7367 31.4078 31.6556 31.1594 32.0677 30.4417C32.3492 29.9515 32.3327 29.3517 32.0241 28.8765C31.9371 28.7429 31.9326 28.5717 32.0121 28.4336C32.0917 28.2955 32.2426 28.2137 32.401 28.2212C32.967 28.2482 33.4932 27.9599 33.7747 27.4697C33.9744 27.1222 34.0262 26.7176 33.9219 26.331C33.8175 25.9444 33.5683 25.6216 33.2207 25.4219C32.5068 25.012 31.5895 25.2582 31.1766 25.9706C31.1031 26.0975 30.9687 26.1778 30.8215 26.1823C30.6782 26.1868 30.5363 26.1148 30.4545 25.9924C30.3246 25.7965 30.1557 25.6381 29.9515 25.521C29.721 25.3889 29.4658 25.3213 29.2068 25.3213H29.2061Z" fill="#3E064F"/>
<path d="M35.4082 23.0655C35.5501 22.8133 35.6379 22.5242 35.6529 22.2157C35.704 21.1542 34.885 20.2519 33.8235 20.2001C32.7621 20.1491 31.8597 20.9681 31.8079 22.0295C31.7929 22.3388 31.8522 22.6338 31.9693 22.8996C30.9109 22.853 30.0131 23.6705 29.962 24.7298C29.911 25.7912 30.73 26.6935 31.7914 26.7453C32.5376 26.7814 33.205 26.3873 33.5533 25.7807C33.8415 26.4173 34.4676 26.8745 35.2145 26.9105C36.276 26.9615 37.1783 26.1425 37.2301 25.0811C37.2812 24.0219 36.4659 23.1218 35.4082 23.0662V23.0655Z" fill="#00B76A"/>
<path d="M35.3084 27.3369C35.2701 27.3369 35.2318 27.3361 35.1935 27.3339C34.5329 27.3023 33.9324 26.9991 33.518 26.5111C33.0586 26.957 32.4318 27.2003 31.7704 27.1687C30.4762 27.1064 29.4748 26.0029 29.5371 24.7087C29.5897 23.6165 30.3869 22.7307 31.4138 22.5205C31.3853 22.3531 31.3748 22.1827 31.3831 22.0093C31.4131 21.3825 31.6856 20.8052 32.1503 20.3833C32.6149 19.9614 33.217 19.746 33.843 19.776C34.4699 19.806 35.0471 20.0785 35.469 20.5432C35.8909 21.0079 36.1064 21.6092 36.0763 22.236C36.0681 22.4094 36.041 22.5783 35.9968 22.7419C36.9982 23.0505 37.7061 24.0091 37.6535 25.1013C37.5927 26.3572 36.5523 27.3376 35.3076 27.3376L35.3084 27.3369ZM33.5533 25.3558C33.56 25.3558 33.5668 25.3558 33.5735 25.3558C33.7327 25.3633 33.8738 25.4594 33.9399 25.6043C34.1741 26.12 34.6695 26.4578 35.2348 26.4848C36.0613 26.5246 36.7655 25.8851 36.8052 25.0586C36.845 24.2358 36.2077 23.5317 35.3857 23.4881C35.2393 23.4806 35.1064 23.3973 35.0359 23.2689C34.9653 23.1406 34.9661 22.9837 35.0381 22.856C35.153 22.6519 35.2175 22.4289 35.2288 22.1939C35.2483 21.7938 35.1102 21.4095 34.8415 21.113C34.572 20.8164 34.2034 20.6423 33.8033 20.6228C33.4039 20.6032 33.0195 20.7414 32.723 21.0101C32.4265 21.2796 32.2523 21.6482 32.2328 22.0483C32.2216 22.2833 32.2636 22.5115 32.3589 22.7262C32.4182 22.8606 32.404 23.0159 32.3214 23.1376C32.2388 23.2592 32.1007 23.329 31.9521 23.3222C31.1263 23.2862 30.4274 23.9258 30.3877 24.7485C30.3479 25.575 30.9874 26.2792 31.8139 26.3189C32.38 26.346 32.9047 26.0577 33.1869 25.5668C33.2628 25.4346 33.4039 25.3536 33.5548 25.3536L33.5533 25.3558Z" fill="#3E064F"/>
<path d="M33.7312 22.8418C34.1678 22.8418 34.5217 22.4879 34.5217 22.0513C34.5217 21.6147 34.1678 21.2608 33.7312 21.2608C33.2946 21.2608 32.9407 21.6147 32.9407 22.0513C32.9407 22.4879 33.2946 22.8418 33.7312 22.8418Z" fill="#12C96A"/>
<path d="M31.2599 25.4309C31.088 25.4309 30.9274 25.322 30.8696 25.1494C30.6459 24.4768 31.0895 23.9986 31.4424 23.8409C31.6503 23.7486 31.8928 23.8417 31.9859 24.0489C32.0774 24.2546 31.9866 24.4955 31.7832 24.5894C31.5835 24.6885 31.6338 24.8393 31.6503 24.8889C31.7224 25.1043 31.6053 25.3371 31.3898 25.4091C31.3463 25.4234 31.3027 25.4301 31.2599 25.4301V25.4309Z" fill="#12C96A"/>
<path d="M9.10278 28.4321C11.499 35.0149 17.4286 40.2546 29.348 35.9164C41.2673 31.5782 42.4414 23.7524 40.0459 17.1696C41.2853 20.5755 35.3632 25.8573 26.8189 28.9674C18.2746 32.0774 10.3429 31.838 9.10353 28.4321H9.10278Z" fill="#E6E6E6"/>
<path d="M11.9321 30.8238C13.513 35.168 19.1049 38.5453 28.9944 34.9458C38.8839 31.3463 40.9971 25.1651 39.4154 20.8202L33.3769 26.1035L26.1193 29.3517L19.2287 31.013L11.9314 30.8238H11.9321Z" fill="#C8C8C8"/>
<path d="M36.8052 23.4078C37.14 25.5728 36.8097 27.8496 35.4225 30.0303C35.219 30.3501 35.6552 30.6872 35.9112 30.4072C38.4177 27.6642 38.9897 24.6719 38.4785 21.8847L36.8052 23.4078Z" fill="white"/>
<path d="M12.2384 30.7119C12.068 30.7743 11.9832 30.9657 12.0522 31.1331C12.9838 33.3889 15.0227 35.3377 18.2123 36.1101C18.5696 36.1964 18.7648 35.7092 18.4473 35.5238C16.6592 34.4811 15.2854 32.8814 14.3553 31.0948L12.2391 30.7119H12.2384Z" fill="#B4B4B4"/>
<path d="M21.3742 37.929C19.1935 37.929 17.2207 37.5034 15.4686 36.6513C12.4283 35.1733 10.0899 32.383 8.70492 28.5808C8.70492 28.58 8.70492 28.5785 8.70342 28.577L9.50139 28.2865C9.50139 28.2865 9.50215 28.2887 9.5029 28.2902C10.6454 31.4131 18.5058 31.5407 26.6733 28.568C30.7562 27.0816 34.3595 25.0555 36.818 22.862C39.1436 20.7879 40.1743 18.7663 39.6458 17.3145L40.4438 17.024C40.4438 17.024 40.4446 17.0262 40.4453 17.0277C41.8288 20.8307 41.8311 24.4715 40.4521 27.5576C38.7638 31.3365 35.0764 34.2829 29.4921 36.315C26.5374 37.3908 23.8237 37.929 21.3727 37.929H21.3742ZM10.493 30.5183C11.8075 32.9775 13.6271 34.8122 15.8402 35.8879C19.3474 37.5927 23.8432 37.4681 29.2031 35.5178C40.368 31.4544 41.3446 24.5586 40.3222 19.6679C39.853 20.878 38.8621 22.1789 37.3848 23.4971C34.8475 25.7604 31.1466 27.8451 26.9645 29.3675C20.0207 31.895 13.6114 32.2388 10.493 30.519V30.5183Z" fill="#3E064F"/>
</g>
</g>
<defs>
<clipPath id="clip0_2_19">
<rect width="50" height="50" fill="white"/>
</clipPath>
<clipPath id="clip1_2_19">
<rect width="50" height="50" fill="white"/>
</clipPath>
</defs>
</svg>
