<svg width="50" height="50" viewBox="0 0 50 50" fill="none" xmlns="http://www.w3.org/2000/svg">
<g clip-path="url(#clip0_2_17)">
<g clip-path="url(#clip1_2_17)">
<path d="M24.9998 49.9997C38.8069 49.9997 49.9997 38.8069 49.9997 24.9998C49.9997 11.1928 38.8069 0 24.9998 0C11.1928 0 0 11.1928 0 24.9998C0 38.8069 11.1928 49.9997 24.9998 49.9997Z" fill="#DB3737"/>
<path d="M40.6151 22.5592V20.8872H36.979V12.7213H32.5462L29.5363 20.8872H20.3918L17.382 12.7213H12.9491V20.8872H9.31305V22.5592H12.9491V27.5756H9.31305V29.2476H12.9491V37.2969H15.9434V29.2476H20.5995L23.5649 37.2969H26.3639L29.3293 29.2476H33.9854V37.2969H36.9797V29.2476H40.6157V27.5756H36.9797V22.5592H40.6157H40.6151ZM33.9847 16.6097V20.8872H32.4087L33.9847 16.6097ZM28.9197 22.5592L27.0709 27.5756H22.8569L21.0081 22.5592H28.92H28.9197ZM15.9431 16.6097L17.5191 20.8872H15.9431V16.6097ZM15.9431 27.5752V22.5589H18.135L19.9832 27.5752H15.9431ZM24.9641 33.2913L23.4735 29.2472H26.4549L24.9644 33.2913H24.9641ZM33.985 27.5752H29.945L31.7931 22.5589H33.985V27.5752Z" fill="white"/>
</g>
</g>
<defs>
<clipPath id="clip0_2_17">
<rect width="50" height="50" fill="white"/>
</clipPath>
<clipPath id="clip1_2_17">
<rect width="50" height="50" fill="white"/>
</clipPath>
</defs>
</svg>
