<svg width="50" height="50" viewBox="0 0 50 50" fill="none" xmlns="http://www.w3.org/2000/svg">
<path d="M24.2453 49C37.634 49 48.4878 38.031 48.4878 24.5C48.4878 10.969 37.634 0 24.2453 0C10.8565 0 0.00284195 10.969 0.00284195 24.5C0.00284195 38.031 10.8565 49 24.2453 49Z" fill="#CCB175"/>
<path d="M39.437 28.5303L41.5877 27.4434C41.9462 27.2622 42.0359 26.7641 41.767 26.4471L39.0785 19.79C38.6751 18.7936 38.4511 17.7974 38.3615 16.7105C37.6445 7.56263 30.0267 0.407365 20.7509 0.543224C11.4304 0.679084 3.81264 8.3325 3.63339 17.7974C3.49895 26.1753 9.14506 33.2401 16.8076 35.142L15.9114 35.6403L10.0413 48.9545H26.0386L29.982 40.2142C30.43 39.2179 31.4606 38.6292 32.5361 38.6745L36.1658 38.9914C37.3756 39.0821 38.3615 38.131 38.3167 36.9083L38.2718 35.7308C38.2718 34.9157 38.4959 34.1458 38.9439 33.4665V33.2401C38.9439 32.7873 38.5855 32.3797 38.1374 32.289C36.5691 32.0174 35.6729 31.2475 35.6729 31.2475C36.7483 31.2475 38.0477 31.1116 38.8992 30.9758C39.3921 30.9305 39.7506 30.4324 39.6609 29.9341L39.437 28.5303Z" fill="white"/>
<path d="M21.3332 35.6405L28.2339 21.0582C33.3424 20.2431 36.5239 10.2348 36.2103 9.64605C35.3588 8.01574 34.5971 7.1553 33.7905 6.24957C30.5194 2.49079 25.9486 0.452894 20.7955 0.543468C11.3405 0.63404 3.63309 8.51389 3.63309 18.1147C3.63309 22.8697 5.51514 27.2172 8.56224 30.342C3.67791 30.7043 -0.13098 34.8254 0.00345149 39.8522C0.137883 44.7884 4.0812 48.8189 8.96553 48.9547C12.7296 49.0453 16.0008 46.9169 17.5242 43.7467C17.5242 43.7016 17.5691 43.6562 17.5691 43.6109L21.3332 35.6405Z" fill="#3838F1"/>
<path d="M26.2627 5.02666C25.1873 9.32889 22.9467 13.3594 19.9444 16.62L25.9491 13.5858C23.2605 19.6089 18.9138 24.3187 13.6262 26.0848L18.8689 25.9037C14.7464 30.1154 9.23474 31.2476 4.12636 29.4361C4.12636 29.4361 4.08156 29.4361 4.08156 29.3908C2.10989 28.6662 1.75141 25.6774 3.40939 24.2734L26.2627 5.02666Z" fill="white"/>
<path d="M35.8514 22.5527C36.4455 22.5527 36.9268 21.7416 36.9268 20.7412C36.9268 19.7407 36.4455 18.9298 35.8514 18.9298C35.2574 18.9298 34.7759 19.7407 34.7759 20.7412C34.7759 21.7416 35.2574 22.5527 35.8514 22.5527Z" fill="#3838F1"/>
</svg>
