<svg width="50" height="50" viewBox="0 0 50 50" fill="none" xmlns="http://www.w3.org/2000/svg">
<path d="M25 50C38.8071 50 50 38.8071 50 25.0001C50 11.193 38.8071 0.000213623 25 0.000213623C11.1929 0.000213623 0 11.193 0 25.0001C0 38.8071 11.1929 50 25 50Z" fill="black"/>
<path d="M24.2118 16.4755C24.8835 15.8853 25.5401 15.9783 25.5401 15.9783C25.5401 15.9783 24.819 15.2344 22.4185 15.6975C20.9497 15.9802 20.665 15.5988 20.5018 15.1471C23.1529 14.2666 26.9862 13.87 32.4818 14.8264C32.5255 14.834 32.5691 14.8397 32.6147 14.8454C32.6792 15.1946 32.7798 15.7544 32.9031 16.447C31.6526 16.3199 27.7111 15.9916 24.2118 16.4736V16.4755Z" fill="url(#paint0_linear_201_2)"/>
<path d="M34.095 25.8066C33.8768 25.9508 33.5352 26.2279 32.9621 26.0798C32.2808 25.9034 31.7286 25.6529 31.7286 25.6529C31.313 25.8142 31.0056 26.0552 30.609 25.8407C30.2978 25.6737 30.2522 25.2619 30.2636 24.9337C30.3964 24.7648 30.4932 24.6414 30.5236 24.5997C30.6659 24.4042 31.4079 24.5864 31.4079 24.5864C31.0246 23.8956 30.256 24.0797 30.1422 24.26C30.0283 24.4403 28.8423 26.7156 28.8423 26.7156C28.8423 26.7156 29.3546 26.076 29.8158 25.4973C29.9467 25.7478 30.2086 26.1899 30.5596 26.4518C30.0928 26.5884 29.626 26.8541 29.3356 27.3627C28.569 28.7005 27.1647 28.7024 27.1533 28.7024C27.1533 28.7024 27.2084 27.5505 26.4853 26.763C25.7604 25.9774 25.5688 24.723 25.5688 24.723C25.1835 25.2544 25.4131 26.4062 25.4131 26.4062C25.4131 26.4062 24.2821 25.0153 23.876 22.7399C23.766 22.1194 23.8343 21.6507 23.9918 21.2958C24.0753 21.4438 24.1246 21.59 24.1075 21.7152C24.0544 22.0966 24.0335 22.6299 24.2651 23.0588C24.5288 23.5465 25.0754 23.8975 25.5403 23.6698C26.2405 23.3282 25.806 22.4496 25.806 22.4496C25.806 22.4496 25.7244 23.4706 25.0621 23.0189C24.4472 22.5995 26.6979 20.9144 25.4568 20.2255H25.4606C23.7736 19.3393 23.5363 18.1229 23.5136 17.6276C23.6768 17.5973 23.84 17.5707 24.007 17.5441C24.1019 17.6789 24.1645 17.8136 24.1493 17.9294C24.1132 18.1893 24.1 18.5499 24.2575 18.8421C24.4358 19.1742 24.8078 19.4114 25.1247 19.2577C25.601 19.0262 25.305 18.4284 25.305 18.4284C25.305 18.4284 25.2499 19.1211 24.8002 18.8156C24.4586 18.5822 25.174 17.918 25.1456 17.4018C25.3619 17.3809 25.5782 17.362 25.7946 17.3449C25.823 17.4132 25.8401 17.4796 25.8306 17.5384C25.7965 17.7832 25.7832 18.1248 25.9312 18.3981C26.1001 18.7112 26.4512 18.9351 26.7491 18.789C27.197 18.5708 26.9199 18.0072 26.9199 18.0072C26.9199 18.0072 26.8668 18.6619 26.4436 18.3715C26.1741 18.1874 26.6011 17.7187 26.7339 17.2879C27.0091 17.2766 27.2824 17.2671 27.5518 17.2614C27.5765 17.3183 27.5879 17.3752 27.5803 17.4246C27.5499 17.6409 27.5385 17.9407 27.6695 18.1818C27.8175 18.4569 28.1268 18.6543 28.3887 18.5271C28.7834 18.3355 28.5386 17.8402 28.5386 17.8402C28.5386 17.8402 28.4931 18.4152 28.1192 18.1609C27.8915 18.0053 28.2274 17.6219 28.3583 17.2538C28.6088 17.2538 28.8555 17.2557 29.0965 17.2595C29.0965 17.2614 29.0965 17.2633 29.0965 17.2652C29.0662 17.4815 29.0548 17.7813 29.1857 18.0223C29.3337 18.2975 29.6431 18.4949 29.9049 18.3677C30.2997 18.1761 30.0549 17.6808 30.0549 17.6808C30.0549 17.6808 30.0093 18.2558 29.6355 18.0015C29.4457 17.8724 29.6469 17.584 29.7968 17.2785C30.0947 17.288 30.3813 17.3012 30.6526 17.3145C30.6223 17.5309 30.6109 17.8307 30.7418 18.0717C30.8898 18.3468 31.1992 18.5442 31.461 18.4171C31.8558 18.2254 31.611 17.7301 31.611 17.7301C31.611 17.7301 31.5654 18.3051 31.1916 18.0508C31.0075 17.9256 31.1916 17.6504 31.3377 17.3563C31.5616 17.3714 31.7704 17.3866 31.9601 17.3999C31.9601 17.4094 31.9601 17.4189 31.9601 17.4284C31.9298 17.6447 31.9184 17.9445 32.0493 18.1855C32.1973 18.4607 32.5067 18.6581 32.7685 18.5309C33.1633 18.3393 32.9185 17.844 32.9185 17.844C32.9185 17.844 32.8729 18.419 32.4991 18.1647C32.3131 18.0375 32.5029 17.7586 32.649 17.4625C32.8501 17.4815 33.0001 17.4967 33.0874 17.5062C33.1784 18.0337 33.2752 18.6011 33.372 19.1818C33.0949 19.6486 31.721 19.679 31.721 19.679C31.721 19.679 30.2408 18.5651 29.4875 19.0869C28.736 19.6088 26.4588 20.0054 26.4588 20.0054C28.2824 20.3508 29.3926 19.5898 29.7512 19.512C30.1099 19.4342 30.9999 20.7151 30.9999 20.7151C30.9999 20.7151 30.1896 20.3204 29.755 20.1667C29.3205 20.0149 27.7587 20.8138 27.7587 20.8138C29.8689 21.1706 30.721 22.5122 30.721 22.5122C30.721 22.5122 30.5691 21.218 30.9942 21.1307C31.4193 21.0415 31.8937 22.2541 31.8937 22.2541C32.1176 21.0112 31.8994 20.5197 32.9355 20.106C33.131 20.0282 33.317 19.8707 33.4498 19.6468C33.9261 22.5559 34.3607 25.6415 34.0969 25.8142L34.095 25.8066Z" fill="url(#paint1_linear_201_2)"/>
<path d="M32.3244 13.4752C32.3984 13.7238 32.4553 13.9477 32.499 14.1375C31.4685 13.8965 28.3355 13.4752 24.8874 13.6954C20.0331 14.0047 18.1032 15.3767 18.1032 15.3767C18.1032 15.3767 21.1831 16.631 22.0561 19.8039C19.5435 15.9384 15.0461 15.0465 12.228 14.8036L12.2584 14.7903C12.2584 14.7903 14.3041 14.3064 17.7256 15.0028C17.7256 15.0028 20.7391 13.4847 25.3409 13.1887C27.8914 13.0236 31.1061 13.2039 32.3244 13.4771V13.4752Z" fill="url(#paint2_linear_201_2)"/>
<path d="M34.1764 14.5798C33.7153 14.8037 32.867 14.316 32.9373 13.7695C33.2523 11.331 31.2028 13.0711 30.9542 12.6157C31.0927 12.5379 30.92 11.5131 31.1155 11.4429C35.1386 9.67239 33.091 13.5152 33.702 13.9346C34.3586 14.3843 34.4402 13.3709 34.4402 13.3709C34.4402 13.3709 34.871 14.2401 34.1764 14.5817V14.5798Z" fill="url(#paint3_linear_201_2)"/>
<path d="M34.1747 39.6386C33.3493 35.5946 31.8899 32.0915 32.5655 29.5145C32.6262 29.2811 32.8255 29.1236 32.9982 28.653C33.1709 28.1804 32.7477 27.7554 32.5124 27.503C32.279 27.2506 32.5276 26.7496 32.5295 26.7439C29.7987 26.7325 30.4819 28.9832 26.7776 30.1654C30.3718 29.5544 30.6565 28.4993 31.6414 27.7402C31.9298 27.5182 32.1158 27.6889 32.4649 28.2488C32.8141 28.8086 31.9981 29.2261 31.8406 29.5525C30.9942 31.3211 32.0418 37.3917 32.0418 37.3917C30.3092 36.8756 29.144 36.9951 27.8877 36.7086C24.9577 36.0425 25.3752 33.418 25.3752 33.418C24.8572 34.2625 24.4662 37.257 24.4662 37.257C22.4889 36.274 20.6196 34.1144 20.5039 33.9797C22.2365 36.2987 24.9293 38.221 25.4265 38.3994C24.9843 37.6138 25.2708 36.7162 25.2708 36.7162C26.0982 38.2893 27.6581 39.3273 29.9486 39.4146C32.0361 39.4943 34.171 39.6386 34.171 39.6386H34.1747Z" fill="url(#paint4_linear_201_2)"/>
<path d="M16.6683 28.4194C16.6683 28.4194 19.5319 29.1196 21.5187 30.5941C21.5187 30.5941 20.9931 29.3094 20.7312 29.0323C20.7312 29.0323 23.0464 29.8445 24.9668 31.8276C24.9668 31.8276 22.6023 28.6281 19.4654 27.8235C19.4654 27.8235 19.7956 28.6452 20.0632 29.15C20.0632 29.15 19.3952 28.4251 16.6702 28.4194H16.6683Z" fill="url(#paint5_linear_201_2)"/>
<path d="M16.5717 16.4757C16.418 16.6294 14.5393 16.8894 15.1522 19.4436C15.7652 21.9998 16.2491 25.1746 15.0289 26.3872C15.0289 26.3872 17.2624 25.0683 16.0916 20.0813C15.3667 16.9881 16.5698 16.4757 16.5698 16.4757H16.5717Z" fill="url(#paint6_linear_201_2)"/>
<path d="M17.7451 14.2269C26.5009 10.8092 32.175 13.0332 32.175 13.0332C32.175 13.0332 31.099 9.51875 27.8388 8.25301C26.4099 7.69889 23.8309 8.10119 23.8954 8.10119C23.96 8.10119 26.1252 8.53007 24.6033 8.85267C23.0813 9.17527 20.9142 8.96084 19.8211 9.5605C18.7281 10.1602 20.6789 9.77493 19.1133 10.5036C17.5477 11.2323 16.2231 11.3823 16.1567 12.0047C16.0903 12.6271 16.4964 12.5417 16.2611 13.0769C16.0258 13.612 15.6614 13.9422 15.5324 14.0029C15.4033 14.0637 16.5419 14.6975 17.7451 14.2288V14.2269Z" fill="url(#paint7_linear_201_2)"/>
<path d="M19.7322 49.4344C6.25873 46.531 -2.33964 33.2056 0.563804 19.7321C3.46915 6.2587 16.7927 -2.33963 30.2663 0.563801C43.7398 3.46723 52.3381 16.7927 49.4347 30.2661C46.5312 43.7395 33.2058 52.3379 19.7322 49.4344ZM30.0955 1.35892C17.0603 -1.45152 4.16939 6.86785 1.35893 19.9048C-1.45153 32.9399 6.86789 45.8308 19.903 48.6412C32.9382 51.4517 45.8291 43.1323 48.6396 30.0972C51.45 17.0621 43.1306 4.17127 30.0955 1.36082V1.35892Z" fill="url(#paint8_linear_201_2)"/>
<path d="M20.78 44.5745C9.98604 42.248 3.09747 31.5736 5.42403 20.7797C7.75058 9.98572 18.425 3.09719 29.219 5.42373C40.013 7.75027 46.9016 18.4246 44.575 29.2186C42.2485 40.0125 31.574 46.901 20.78 44.5745ZM29.0482 6.21885C18.6926 3.98719 8.45082 10.5949 6.21915 20.9523C3.98748 31.3079 10.5952 41.5496 20.9527 43.7813C31.3083 46.0129 41.5501 39.4053 43.7818 29.0478C46.0134 18.6903 39.4057 8.45051 29.0482 6.21885Z" fill="url(#paint9_linear_201_2)"/>
<path d="M17.491 46.8016L18.7074 44.7028C19.6316 45.0159 20.5823 45.2569 21.533 45.422L21.2958 46.8851C20.9011 46.8149 20.4627 46.7921 19.5974 46.4809L19.8024 45.9686C20.1382 46.1014 20.5671 46.1982 20.8404 46.2513L20.903 45.8642C20.2521 45.7332 19.6012 45.5662 18.9617 45.3651L18.3051 46.498C19.5822 46.9174 20.9504 47.2115 22.3775 47.3709C22.3547 46.7049 22.3699 45.1583 22.368 44.513H22.9202C22.9202 44.9324 22.8804 47.1831 22.8614 47.9687C21.015 47.8074 19.1268 47.3899 17.491 46.8035V46.8016Z" fill="url(#paint10_linear_201_2)"/>
<path d="M32.5114 3.19707L31.295 5.29589C30.3708 4.98278 29.42 4.74177 28.4693 4.57668L28.7065 3.11357C29.1012 3.18379 29.5396 3.20656 30.4049 3.51778L30.2 4.03015C29.8641 3.89731 29.4352 3.80053 29.162 3.7474L29.0993 4.13452C29.7502 4.26546 30.4011 4.43245 31.0407 4.63361L31.6973 3.5007C30.4201 3.08131 29.0519 2.78718 27.6248 2.62777C27.6476 3.29385 27.6324 4.84045 27.6343 5.48566H27.0821C27.0821 5.06627 27.122 2.81564 27.1409 2.03001C28.9874 2.19131 30.8756 2.6088 32.5114 3.19517V3.19707Z" fill="url(#paint11_linear_201_2)"/>
<path d="M3.1979 17.4884L5.29673 18.7049C4.98362 19.629 4.74261 20.5797 4.57751 21.5305L3.1144 21.2933C3.18462 20.8986 3.20739 20.4602 3.51861 19.5949L4.03098 19.7998C3.89814 20.1357 3.80136 20.5646 3.74823 20.8378L4.13535 20.9005C4.26629 20.2496 4.43329 19.5987 4.63444 18.9591L3.50153 18.3025C3.08214 19.5797 2.788 20.9479 2.6286 22.3749C3.29468 22.3522 4.84129 22.3674 5.4865 22.3655V22.9177C5.06711 22.9177 2.81647 22.8778 2.03083 22.8588C2.19213 21.0124 2.60962 19.1242 3.196 17.4884H3.1979Z" fill="url(#paint12_linear_201_2)"/>
<path d="M46.8021 32.5085L44.7033 31.2921C45.0164 30.3679 45.2574 29.4172 45.4225 28.4665L46.8856 28.7037C46.8154 29.0984 46.7927 29.5368 46.4814 30.4021L45.9691 30.1972C46.1019 29.8613 46.1987 29.4324 46.2518 29.1591L45.8647 29.0965C45.7338 29.7474 45.5668 30.3983 45.3656 31.0378L46.4985 31.6944C46.9179 30.4173 47.212 29.0491 47.3715 27.622C46.7054 27.6448 45.1588 27.6296 44.5135 27.6315V27.0793C44.9329 27.0793 47.1836 27.1191 47.9692 27.1381C47.8079 28.9845 47.3904 30.8727 46.804 32.5085H46.8021Z" fill="url(#paint13_linear_201_2)"/>
<path d="M4.27248 35.1048L6.61801 34.4805C7.05068 35.3553 7.55167 36.1978 8.10769 36.9873L6.90456 37.8545C6.67494 37.5262 6.3808 37.2017 5.98988 36.3686L6.49656 36.1504C6.63889 36.4825 6.87609 36.8544 7.0317 37.0841L7.35051 36.8544C6.98236 36.3022 6.64078 35.7234 6.32956 35.1276L5.06381 35.4634C5.67107 36.6647 6.43014 37.8374 7.32584 38.9608C7.78129 38.4731 8.88574 37.3915 9.33928 36.9341L9.7302 37.3232C9.43416 37.6211 7.81355 39.1848 7.24424 39.7256C6.0525 38.3062 5.01258 36.6742 4.27058 35.1029L4.27248 35.1048Z" fill="url(#paint14_linear_201_2)"/>
<path d="M45.7272 14.8927L43.3817 15.517C42.949 14.6422 42.4481 13.7996 41.892 13.0102L43.0952 12.143C43.3248 12.4713 43.6189 12.7958 44.0098 13.6289L43.5032 13.8471C43.3608 13.515 43.1236 13.1431 42.968 12.9134L42.6492 13.1431C43.0174 13.6953 43.3589 14.2741 43.6702 14.8699L44.9359 14.534C44.3287 13.3328 43.5696 12.1601 42.6739 11.0366C42.2184 11.5243 41.114 12.606 40.6604 13.0633L40.2695 12.6743C40.5656 12.3764 42.1862 10.8127 42.7555 10.2719C43.9472 11.6913 44.9872 13.3233 45.7291 14.8946L45.7272 14.8927Z" fill="url(#paint15_linear_201_2)"/>
<path d="M14.8935 4.27127L15.5178 6.61679C14.643 7.04945 13.8004 7.55044 13.011 8.10645L12.1438 6.90333C12.4721 6.67372 12.7966 6.37958 13.6297 5.98866L13.8479 6.49533C13.5158 6.63766 13.1439 6.87487 12.9142 7.03048L13.1439 7.34929C13.6961 6.98114 14.2749 6.63956 14.8707 6.32834L14.5348 5.0626C13.3336 5.66985 12.1609 6.42892 11.0374 7.32462C11.5251 7.78006 12.6068 8.8845 13.0641 9.33804L12.6751 9.72896C12.3772 9.43292 10.8135 7.81232 10.2727 7.24302C11.6921 6.05128 13.3241 5.01136 14.8954 4.26937L14.8935 4.27127Z" fill="url(#paint16_linear_201_2)"/>
<path d="M35.1055 45.7258L34.4811 43.3803C35.356 42.9476 36.1985 42.4467 36.988 41.8906L37.8552 43.0938C37.5269 43.3234 37.2024 43.6175 36.3693 44.0084L36.1511 43.5018C36.4832 43.3594 36.8551 43.1222 37.0847 42.9666L36.8551 42.6478C36.3029 43.016 35.7241 43.3575 35.1282 43.6687L35.4641 44.9345C36.6654 44.3272 37.8381 43.5682 38.9615 42.6725C38.4738 42.217 37.3922 41.1126 36.9348 40.659L37.3238 40.2681C37.6218 40.5642 39.1855 42.1848 39.7263 42.7541C38.3068 43.9458 36.6748 44.9857 35.1036 45.7277L35.1055 45.7258Z" fill="url(#paint17_linear_201_2)"/>
<path d="M9.69543 42.2454L11.6254 40.7747C12.3579 41.4199 13.1435 42.0063 13.9595 42.5244L13.1777 43.7844C12.8399 43.5681 12.4452 43.3802 11.7639 42.7597L12.1491 42.365C12.4072 42.6174 12.7678 42.8716 12.9993 43.0254L13.2061 42.6933C12.6558 42.3232 12.1188 41.919 11.6045 41.4863L10.5627 42.2796C11.5817 43.1582 12.7298 43.9533 13.988 44.6498C14.2214 44.0254 14.8305 42.6041 15.0753 42.0082L15.5858 42.2188C15.4264 42.6079 14.5231 44.6706 14.2043 45.3879C12.5609 44.5302 10.9783 43.4182 9.69353 42.2492L9.69543 42.2454Z" fill="url(#paint18_linear_201_2)"/>
<path d="M40.3108 7.7515L38.3809 9.22219C37.6484 8.57698 36.8627 7.99061 36.0467 7.47254L36.8286 6.21249C37.1663 6.42883 37.5611 6.61669 38.2423 7.23723L37.8571 7.63195C37.599 7.37956 37.2385 7.12527 37.0069 6.97156L36.8001 7.30365C37.3504 7.6737 37.8875 8.0779 38.4017 8.51057L39.4436 7.71734C38.4245 6.83872 37.2764 6.0436 36.0182 5.34716C35.7848 5.97149 35.1757 7.39284 34.9309 7.98871L34.4204 7.77807C34.5798 7.38905 35.4831 5.32628 35.8019 4.60896C37.4453 5.46671 39.028 6.57874 40.3127 7.7477L40.3108 7.7515Z" fill="url(#paint19_linear_201_2)"/>
<path d="M7.75481 9.6934L9.22551 11.6233C8.5803 12.3558 7.99392 13.1415 7.47585 13.9575L6.2158 13.1756C6.43213 12.8378 6.62 12.4431 7.24054 11.7619L7.63526 12.1471C7.38287 12.4052 7.12858 12.7657 6.97487 12.9972L7.30696 13.2041C7.67701 12.6538 8.08121 12.1167 8.51388 11.6025L7.72065 10.5606C6.84203 11.5797 6.0469 12.7278 5.35046 13.9859C5.97479 14.2193 7.39615 14.8285 7.99202 15.0733L7.78138 15.5838C7.39236 15.4244 5.32958 14.5211 4.61226 14.2023C5.47001 12.5589 6.58205 10.9762 7.75102 9.69151L7.75481 9.6934Z" fill="url(#paint20_linear_201_2)"/>
<path d="M42.2492 40.3065L40.7785 38.3766C41.4237 37.6441 42.0101 36.8585 42.5281 36.0425L43.7882 36.8243C43.5718 37.1621 43.384 37.5568 42.7634 38.2381L42.3687 37.8528C42.6211 37.5948 42.8754 37.2342 43.0291 37.0027L42.697 36.7958C42.327 37.3462 41.9228 37.8832 41.4901 38.3975L42.2833 39.4393C43.1619 38.4202 43.9571 37.2721 44.6535 36.014C44.0292 35.7806 42.6078 35.1714 42.0119 34.9266L42.2226 34.4162C42.6116 34.5756 44.6744 35.4789 45.3917 35.7977C44.534 37.441 43.4219 39.0237 42.253 40.3084L42.2492 40.3065Z" fill="url(#paint21_linear_201_2)"/>
<path d="M1.98421 26.372L4.38857 26.6965C4.4512 27.67 4.59162 28.6416 4.80227 29.5829L3.36003 29.9206C3.27464 29.5297 3.12851 29.116 3.08487 28.1957L3.63709 28.1881C3.64089 28.5486 3.71679 28.9832 3.77183 29.2565L4.15326 29.1673C4.02612 28.5164 3.93123 27.8503 3.8743 27.1823L2.57629 27.0077C2.67497 28.3494 2.92546 29.7233 3.32208 31.1067C3.92933 30.8315 5.36398 30.2565 5.95985 30.0079L6.17239 30.5165C5.78336 30.6778 3.68643 31.4995 2.95393 31.7804C2.39981 30.0117 2.06581 28.1065 1.98421 26.372Z" fill="url(#paint22_linear_201_2)"/>
<path d="M48.0235 23.6279L45.6191 23.3034C45.5565 22.3299 45.416 21.3583 45.2054 20.417L46.6476 20.0792C46.733 20.4701 46.8792 20.8838 46.9228 21.8042L46.3706 21.8118C46.3668 21.4512 46.2909 21.0167 46.2358 20.7434L45.8544 20.8326C45.9816 21.4835 46.0764 22.1496 46.1334 22.8176L47.4314 22.9921C47.3327 21.6505 47.0822 20.2766 46.6856 18.8932C46.0783 19.1683 44.6437 19.7433 44.0478 19.9919L43.8353 19.4834C44.2243 19.3221 46.3212 18.5004 47.0537 18.2195C47.6079 19.9881 47.9419 21.8934 48.0235 23.6279Z" fill="url(#paint23_linear_201_2)"/>
<path d="M23.6314 1.98067L23.3069 4.38502C22.3334 4.44764 21.3618 4.58807 20.4205 4.79871L20.0828 3.35648C20.4737 3.27109 20.8874 3.12497 21.8077 3.08132L21.8153 3.63354C21.4548 3.63734 21.0202 3.71325 20.7469 3.76828L20.8361 4.14971C21.487 4.02257 22.1531 3.92768 22.8211 3.87075L22.9957 2.57275C21.654 2.67143 20.2801 2.92192 18.8967 3.31853C19.1719 3.92578 19.7469 5.36042 19.9955 5.95629L19.4869 6.16883C19.3256 5.7798 18.5039 3.68288 18.223 2.95038C19.9917 2.39626 21.8969 2.06227 23.6314 1.98067Z" fill="url(#paint24_linear_201_2)"/>
<path d="M26.3753 48.0181L26.6998 45.6138C27.6733 45.5512 28.6449 45.4107 29.5862 45.2001L29.9239 46.6423C29.533 46.7277 29.1193 46.8738 28.199 46.9175L28.1914 46.3653C28.5519 46.3615 28.9865 46.2856 29.2598 46.2305L29.1706 45.8491C28.5197 45.9762 27.8536 46.0711 27.1856 46.128L27.011 47.4261C28.3527 47.3274 29.7266 47.0769 31.11 46.6803C30.8348 46.073 30.2598 44.6384 30.0112 44.0425L30.5198 43.83C30.6811 44.219 31.5028 46.3159 31.7837 47.0484C30.015 47.6025 28.1098 47.9365 26.3753 48.0181Z" fill="url(#paint25_linear_201_2)"/>
<defs>
<linearGradient id="paint0_linear_201_2" x1="26.7015" y1="-4.15404" x2="26.7015" y2="55.7876" gradientUnits="userSpaceOnUse">
<stop stop-color="#E9D094"/>
<stop offset="0.34" stop-color="#FFD670"/>
<stop offset="0.66" stop-color="#BC5C2C"/>
<stop offset="1" stop-color="#DFAA4C"/>
</linearGradient>
<linearGradient id="paint1_linear_201_2" x1="28.8423" y1="-4.1538" x2="28.8423" y2="55.7878" gradientUnits="userSpaceOnUse">
<stop stop-color="#E9D094"/>
<stop offset="0.34" stop-color="#FFD670"/>
<stop offset="0.66" stop-color="#BC5C2C"/>
<stop offset="1" stop-color="#DFAA4C"/>
</linearGradient>
<linearGradient id="paint2_linear_201_2" x1="22.3635" y1="-4.15411" x2="22.3635" y2="55.7875" gradientUnits="userSpaceOnUse">
<stop stop-color="#E9D094"/>
<stop offset="0.34" stop-color="#FFD670"/>
<stop offset="0.66" stop-color="#BC5C2C"/>
<stop offset="1" stop-color="#DFAA4C"/>
</linearGradient>
<linearGradient id="paint3_linear_201_2" x1="32.7627" y1="-4.15402" x2="32.7627" y2="55.7876" gradientUnits="userSpaceOnUse">
<stop stop-color="#E9D094"/>
<stop offset="0.34" stop-color="#FFD670"/>
<stop offset="0.66" stop-color="#BC5C2C"/>
<stop offset="1" stop-color="#DFAA4C"/>
</linearGradient>
<linearGradient id="paint4_linear_201_2" x1="27.3393" y1="-3.10641" x2="27.3393" y2="54.8047" gradientUnits="userSpaceOnUse">
<stop stop-color="#E9D094"/>
<stop offset="0.34" stop-color="#FFD670"/>
<stop offset="0.66" stop-color="#BC5C2C"/>
<stop offset="1" stop-color="#DFAA4C"/>
</linearGradient>
<linearGradient id="paint5_linear_201_2" x1="20.8166" y1="-4.15409" x2="20.8166" y2="55.7876" gradientUnits="userSpaceOnUse">
<stop stop-color="#E9D094"/>
<stop offset="0.34" stop-color="#FFD670"/>
<stop offset="0.66" stop-color="#BC5C2C"/>
<stop offset="1" stop-color="#DFAA4C"/>
</linearGradient>
<linearGradient id="paint6_linear_201_2" x1="15.7993" y1="-4.15386" x2="15.7993" y2="55.7878" gradientUnits="userSpaceOnUse">
<stop stop-color="#E9D094"/>
<stop offset="0.34" stop-color="#FFD670"/>
<stop offset="0.66" stop-color="#BC5C2C"/>
<stop offset="1" stop-color="#DFAA4C"/>
</linearGradient>
<linearGradient id="paint7_linear_201_2" x1="23.848" y1="-4.15394" x2="23.848" y2="55.7877" gradientUnits="userSpaceOnUse">
<stop stop-color="#E9D094"/>
<stop offset="0.34" stop-color="#FFD670"/>
<stop offset="0.66" stop-color="#BC5C2C"/>
<stop offset="1" stop-color="#DFAA4C"/>
</linearGradient>
<linearGradient id="paint8_linear_201_2" x1="30.5318" y1="-0.643176" x2="18.9346" y2="53.1786" gradientUnits="userSpaceOnUse">
<stop stop-color="#E9D094"/>
<stop offset="0.34" stop-color="#FFD670"/>
<stop offset="0.66" stop-color="#BC5C2C"/>
<stop offset="1" stop-color="#DFAA4C"/>
</linearGradient>
<linearGradient id="paint9_linear_201_2" x1="30.5321" y1="-0.643176" x2="18.9348" y2="53.1786" gradientUnits="userSpaceOnUse">
<stop stop-color="#E9D094"/>
<stop offset="0.34" stop-color="#FFD670"/>
<stop offset="0.66" stop-color="#BC5C2C"/>
<stop offset="1" stop-color="#DFAA4C"/>
</linearGradient>
<linearGradient id="paint10_linear_201_2" x1="30.5336" y1="-0.643882" x2="18.9364" y2="53.1778" gradientUnits="userSpaceOnUse">
<stop stop-color="#E9D094"/>
<stop offset="0.34" stop-color="#FFD670"/>
<stop offset="0.66" stop-color="#BC5C2C"/>
<stop offset="1" stop-color="#DFAA4C"/>
</linearGradient>
<linearGradient id="paint11_linear_201_2" x1="30.5339" y1="-0.643866" x2="18.9366" y2="53.1779" gradientUnits="userSpaceOnUse">
<stop stop-color="#E9D094"/>
<stop offset="0.34" stop-color="#FFD670"/>
<stop offset="0.66" stop-color="#BC5C2C"/>
<stop offset="1" stop-color="#DFAA4C"/>
</linearGradient>
<linearGradient id="paint12_linear_201_2" x1="9.7159" y1="-5.12918" x2="-1.88139" y2="48.6926" gradientUnits="userSpaceOnUse">
<stop stop-color="#E9D094"/>
<stop offset="0.34" stop-color="#FFD670"/>
<stop offset="0.66" stop-color="#BC5C2C"/>
<stop offset="1" stop-color="#DFAA4C"/>
</linearGradient>
<linearGradient id="paint13_linear_201_2" x1="51.3456" y1="3.84117" x2="39.7483" y2="57.6629" gradientUnits="userSpaceOnUse">
<stop stop-color="#E9D094"/>
<stop offset="0.34" stop-color="#FFD670"/>
<stop offset="0.66" stop-color="#BC5C2C"/>
<stop offset="1" stop-color="#DFAA4C"/>
</linearGradient>
<linearGradient id="paint14_linear_201_2" x1="15.6416" y1="-3.85216" x2="4.04429" y2="49.9696" gradientUnits="userSpaceOnUse">
<stop stop-color="#E9D094"/>
<stop offset="0.34" stop-color="#FFD670"/>
<stop offset="0.66" stop-color="#BC5C2C"/>
<stop offset="1" stop-color="#DFAA4C"/>
</linearGradient>
<linearGradient id="paint15_linear_201_2" x1="45.4215" y1="2.56467" x2="33.8242" y2="56.3864" gradientUnits="userSpaceOnUse">
<stop stop-color="#E9D094"/>
<stop offset="0.34" stop-color="#FFD670"/>
<stop offset="0.66" stop-color="#BC5C2C"/>
<stop offset="1" stop-color="#DFAA4C"/>
</linearGradient>
<linearGradient id="paint16_linear_201_2" x1="15.2425" y1="-3.93832" x2="3.64517" y2="49.8834" gradientUnits="userSpaceOnUse">
<stop stop-color="#E9D094"/>
<stop offset="0.34" stop-color="#FFD670"/>
<stop offset="0.66" stop-color="#BC5C2C"/>
<stop offset="1" stop-color="#DFAA4C"/>
</linearGradient>
<linearGradient id="paint17_linear_201_2" x1="45.8199" y1="2.65042" x2="34.2226" y2="56.4722" gradientUnits="userSpaceOnUse">
<stop stop-color="#E9D094"/>
<stop offset="0.34" stop-color="#FFD670"/>
<stop offset="0.66" stop-color="#BC5C2C"/>
<stop offset="1" stop-color="#DFAA4C"/>
</linearGradient>
<linearGradient id="paint18_linear_201_2" x1="22.2712" y1="-2.42462" x2="10.6739" y2="51.3971" gradientUnits="userSpaceOnUse">
<stop stop-color="#E9D094"/>
<stop offset="0.34" stop-color="#FFD670"/>
<stop offset="0.66" stop-color="#BC5C2C"/>
<stop offset="1" stop-color="#DFAA4C"/>
</linearGradient>
<linearGradient id="paint19_linear_201_2" x1="38.7984" y1="1.13655" x2="27.2011" y2="54.9583" gradientUnits="userSpaceOnUse">
<stop stop-color="#E9D094"/>
<stop offset="0.34" stop-color="#FFD670"/>
<stop offset="0.66" stop-color="#BC5C2C"/>
<stop offset="1" stop-color="#DFAA4C"/>
</linearGradient>
<linearGradient id="paint20_linear_201_2" x1="10.7665" y1="-4.90277" x2="-0.83078" y2="48.919" gradientUnits="userSpaceOnUse">
<stop stop-color="#E9D094"/>
<stop offset="0.34" stop-color="#FFD670"/>
<stop offset="0.66" stop-color="#BC5C2C"/>
<stop offset="1" stop-color="#DFAA4C"/>
</linearGradient>
<linearGradient id="paint21_linear_201_2" x1="50.3027" y1="3.6162" x2="38.7054" y2="57.438" gradientUnits="userSpaceOnUse">
<stop stop-color="#E9D094"/>
<stop offset="0.34" stop-color="#FFD670"/>
<stop offset="0.66" stop-color="#BC5C2C"/>
<stop offset="1" stop-color="#DFAA4C"/>
</linearGradient>
<linearGradient id="paint22_linear_201_2" x1="11.2491" y1="-4.79923" x2="-0.348163" y2="49.0225" gradientUnits="userSpaceOnUse">
<stop stop-color="#E9D094"/>
<stop offset="0.34" stop-color="#FFD670"/>
<stop offset="0.66" stop-color="#BC5C2C"/>
<stop offset="1" stop-color="#DFAA4C"/>
</linearGradient>
<linearGradient id="paint23_linear_201_2" x1="49.8219" y1="3.51222" x2="38.2246" y2="57.334" gradientUnits="userSpaceOnUse">
<stop stop-color="#E9D094"/>
<stop offset="0.34" stop-color="#FFD670"/>
<stop offset="0.66" stop-color="#BC5C2C"/>
<stop offset="1" stop-color="#DFAA4C"/>
</linearGradient>
<linearGradient id="paint24_linear_201_2" x1="22.0907" y1="-2.46343" x2="10.4934" y2="51.3583" gradientUnits="userSpaceOnUse">
<stop stop-color="#E9D094"/>
<stop offset="0.34" stop-color="#FFD670"/>
<stop offset="0.66" stop-color="#BC5C2C"/>
<stop offset="1" stop-color="#DFAA4C"/>
</linearGradient>
<linearGradient id="paint25_linear_201_2" x1="38.9775" y1="1.17536" x2="27.3802" y2="54.9971" gradientUnits="userSpaceOnUse">
<stop stop-color="#E9D094"/>
<stop offset="0.34" stop-color="#FFD670"/>
<stop offset="0.66" stop-color="#BC5C2C"/>
<stop offset="1" stop-color="#DFAA4C"/>
</linearGradient>
</defs>
</svg>
