<svg width="50" height="50" viewBox="0 0 50 50" fill="none" xmlns="http://www.w3.org/2000/svg">
<g clip-path="url(#clip0_201_63)">
<path d="M25 0C38.8065 0 50 11.1935 50 25C50 38.8065 38.806 50 25 50C11.194 50 0 38.8095 0 25C0 11.1905 11.192 0 25 0Z" fill="#53AE94"/>
<path d="M28.0855 21.669V17.95H36.59V12.2835H13.432V17.95H21.9375V21.666C15.025 21.9835 9.8275 23.3525 9.8275 24.9925C9.8275 26.6325 15.0275 28.0015 21.9375 28.321V40.2335H28.0875V28.32C34.9875 28.0015 40.1745 26.6335 40.1745 24.995C40.1745 23.3565 34.9875 21.9885 28.0875 21.67M28.0875 27.311V27.308C27.914 27.319 27.0225 27.3725 25.0375 27.3725C23.4505 27.3725 22.334 27.3275 21.9405 27.307V27.312C15.8335 27.0415 11.275 25.978 11.275 24.7055C11.275 23.433 15.834 22.371 21.9405 22.1V26.2525C22.3405 26.28 23.4845 26.3475 25.0635 26.3475C26.96 26.3475 27.9135 26.2685 28.0885 26.2525V22.1C34.1835 22.3715 38.7315 23.436 38.7315 24.704C38.7315 25.972 34.1815 27.037 28.0885 27.3085" fill="white"/>
</g>
<defs>
<clipPath id="clip0_201_63">
<rect width="50" height="50" fill="white"/>
</clipPath>
</defs>
</svg>
