<svg width="50" height="50" viewBox="0 0 50 50" fill="none" xmlns="http://www.w3.org/2000/svg">
<g clip-path="url(#clip0_1_2)">
<circle cx="25" cy="25" r="24" fill="white"/>
<mask id="mask0_1_2" style="mask-type:luminance" maskUnits="userSpaceOnUse" x="0" y="0" width="50" height="50">
<path d="M50 0H0V50H50V0Z" fill="white"/>
</mask>
<g mask="url(#mask0_1_2)">
<path d="M40.7697 10.4933L39.3969 11.8662C42.6728 15.4486 44.4894 20.1273 44.4894 24.9817C44.4894 29.8361 42.6728 34.5147 39.3969 38.0972L40.7697 39.4701C44.4129 35.5184 46.4355 30.3404 46.4355 24.9657C46.4355 19.5909 44.4129 14.4129 40.7697 10.4613V10.4933Z" fill="#5A5564"/>
<path d="M11.8982 10.6123C15.4806 7.3364 20.1593 5.51975 25.0138 5.51975C29.8681 5.51975 34.5468 7.3364 38.1292 10.6123L39.5021 9.23946C35.5504 5.59628 30.3725 3.57364 24.9977 3.57364C19.6229 3.57364 14.445 5.59628 10.4933 9.23946L11.8982 10.6123Z" fill="#5A5564"/>
<path d="M10.6123 38.1109C7.34029 34.5293 5.52602 29.8535 5.52602 25.0023C5.52602 20.1511 7.34029 15.4753 10.6123 11.8937L9.23946 10.5208C5.59629 14.4724 3.57364 19.6504 3.57364 25.0252C3.57364 30.3999 5.59629 35.5779 9.23946 39.5296L10.6123 38.1109Z" fill="#5A5564"/>
<path d="M38.1109 39.3786C34.5285 42.6545 29.8498 44.4711 24.9954 44.4711C20.141 44.4711 15.4623 42.6545 11.8799 39.3786L10.5071 40.7514C14.4587 44.3946 19.6367 46.4172 25.0114 46.4172C30.3862 46.4172 35.5642 44.3946 39.5158 40.7514L38.1109 39.3786Z" fill="#5A5564"/>
<path d="M33.6674 20.4192C33.3929 17.5545 30.9217 16.5935 27.7961 16.3005V12.3558H25.3798V16.2273C24.7437 16.2273 24.0939 16.2273 23.4487 16.2273V12.3558H21.0507V16.328H16.1496V18.9136C16.1496 18.9136 17.9343 18.8816 17.9068 18.9136C18.2287 18.8782 18.5516 18.9691 18.8077 19.1671C19.0638 19.3652 19.233 19.6549 19.2797 19.9753V30.8484C19.2729 30.9614 19.2434 31.0719 19.193 31.1733C19.1428 31.2746 19.0726 31.3649 18.9868 31.4388C18.9026 31.514 18.8041 31.5714 18.6971 31.6076C18.5902 31.6438 18.4771 31.6579 18.3645 31.6493C18.3965 31.6767 16.6071 31.6493 16.6071 31.6493L16.1496 34.5369H21.0049V38.5731H23.4212V34.5963H25.3524V38.5548H27.7732V34.5644C31.8552 34.3172 34.7016 33.3104 35.0586 29.4893C35.3469 26.414 33.9008 25.0412 31.5898 24.4875C32.9947 23.7964 33.8642 22.5151 33.6674 20.4192ZM30.281 29.0134C30.281 32.0154 25.1373 31.6721 23.499 31.6721V26.3454C25.1373 26.35 30.281 25.8787 30.281 29.0134ZM29.1598 21.5083C29.1598 24.2541 24.8673 23.92 23.5036 23.92V19.0783C24.8673 19.0783 29.1598 18.6482 29.1598 21.5083Z" fill="#F09242"/>
<path d="M24.9955 50C20.0513 49.9991 15.2184 48.5322 11.1079 45.7848C6.99738 43.0375 3.79377 39.1329 1.90215 34.565C0.0105238 29.9971 -0.484174 24.9707 0.480603 20.1216C1.44538 15.2725 3.82631 10.8184 7.32234 7.32234C10.8184 3.82631 15.2725 1.44538 20.1216 0.480603C24.9707 -0.484174 29.9971 0.0105236 34.565 1.90214C39.1329 3.79377 43.0375 6.99738 45.7848 11.1079C48.5322 15.2184 49.9991 20.0513 50 24.9955C50.0006 28.2793 49.3543 31.531 48.0979 34.565C46.8415 37.5989 44.9997 40.3557 42.6777 42.6777C40.3557 44.9997 37.5989 46.8415 34.565 48.0979C31.531 49.3543 28.2793 50.0006 24.9955 50ZM24.9955 1.94949C20.4404 1.95311 15.9886 3.30704 12.2029 5.84015C8.41705 8.37326 5.46721 11.9719 3.72615 16.1811C1.98508 20.3903 1.53095 25.0212 2.42115 29.4884C3.31136 33.9556 5.50594 38.0587 8.7275 41.279C11.9491 44.4993 16.053 46.6922 20.5206 47.5806C24.9882 48.4691 29.6189 48.0131 33.8274 46.2704C38.0359 44.5277 41.6333 41.5763 44.1649 37.7896C46.6965 34.0028 48.0488 29.5505 48.0505 24.9955C48.0517 21.9679 47.4562 18.9698 46.2979 16.1726C45.1396 13.3754 43.4412 10.8339 41.3 8.69356C39.1588 6.5532 36.6166 4.85588 33.8189 3.69868C31.0213 2.54148 28.023 1.94708 24.9955 1.94949Z" fill="#282138"/>
</g>
</g>
<defs>
<clipPath id="clip0_1_2">
<rect width="50" height="50" fill="white"/>
</clipPath>
</defs>
</svg>
