<svg width="50" height="50" viewBox="0 0 50 50" fill="none" xmlns="http://www.w3.org/2000/svg">
<g clip-path="url(#clip0_2_80)">
<path d="M14.0171 49.5902C26.5847 49.5902 26.5847 49.4031 28.7156 48.7705C31.5004 47.9438 20.8531 40.5738 14.0171 40.5738C7.18103 40.5738 1.63934 42.5922 1.63934 45.082C1.63934 47.5718 7.18131 49.5902 14.0171 49.5902Z" fill="black"/>
<path d="M42.5543 11.2536L43.1324 11.8765L42.627 12.5598C26.2366 34.7209 16.7946 44.7549 12.7885 43.4091C10.3483 42.5894 7.90123 40.1242 5.45406 36.5445C4.59389 35.2863 3.78616 33.9613 3.05153 32.6428C2.56234 31.7648 2.14828 30.964 1.93329 30.513C1.65904 29.9376 1.54326 29.5832 1.4514 29.1177C1.44579 29.0892 1.44579 29.0892 1.44047 29.0617C1.40213 28.8641 1.38886 28.8017 1.3602 28.6937C0.867006 26.8348 0.614754 24.909 0.614754 22.9508C0.614754 10.615 10.615 0.614761 22.9508 0.614761C26.8155 0.614761 30.5397 1.59833 33.8403 3.44467L33.9255 3.49798C36.6278 5.37936 39.5022 7.96452 42.5543 11.2536ZM32.7961 5.20864C29.8102 3.54797 26.4459 2.66394 22.9508 2.66394C11.7467 2.66394 2.66393 11.7467 2.66393 22.9508C2.66393 24.7312 2.89305 26.4804 3.34085 28.1681C3.38513 28.335 3.40516 28.4293 3.45213 28.6714C3.45706 28.6968 3.45706 28.6968 3.46181 28.7209C3.52109 29.0214 3.58364 29.2128 3.78308 29.6312C3.9792 30.0427 4.37333 30.8049 4.84161 31.6454C5.54769 32.9127 6.3236 34.1854 7.14573 35.388C9.35671 38.6222 11.5494 40.8312 13.441 41.4666C15.9639 42.3141 25.4615 32.2602 40.4711 12.0276C37.7461 9.1513 35.1862 6.87828 32.7961 5.20864Z" fill="black"/>
<path d="M32.7961 5.20864C29.8102 3.54797 26.4459 2.66394 22.9508 2.66394C11.7467 2.66394 2.66393 11.7467 2.66393 22.9508C2.66393 24.7312 2.89305 26.4804 3.34085 28.1681C3.38513 28.335 3.40516 28.4293 3.45214 28.6714C3.45707 28.6968 3.45707 28.6968 3.46181 28.7209C3.52109 29.0214 3.58364 29.2128 3.78308 29.6312C3.9792 30.0427 4.37333 30.8049 4.84161 31.6454C5.54769 32.9127 6.3236 34.1854 7.14573 35.388C9.35671 38.6222 11.5494 40.8312 13.441 41.4666C15.9639 42.3141 25.4615 32.2602 40.4711 12.0276C37.7461 9.1513 35.1862 6.87828 32.7961 5.20864Z" fill="#EC1C79"/>
<path d="M27.0492 49.3853C14.7133 49.3853 4.71312 39.3851 4.71312 27.0492C4.71312 14.7133 14.7133 4.71312 27.0492 4.71312C39.385 4.71312 49.3852 14.7133 49.3852 27.0492C49.3852 39.3851 39.385 49.3853 27.0492 49.3853ZM27.0492 47.3361C38.2533 47.3361 47.3361 38.2533 47.3361 27.0492C47.3361 15.845 38.2533 6.7623 27.0492 6.7623C15.845 6.7623 6.7623 15.845 6.7623 27.0492C6.7623 38.2533 15.845 47.3361 27.0492 47.3361Z" fill="black"/>
<path d="M27.0492 47.3361C38.2533 47.3361 47.3361 38.2533 47.3361 27.0492C47.3361 15.845 38.2533 6.7623 27.0492 6.7623C15.845 6.7623 6.76229 15.845 6.76229 27.0492C6.76229 38.2533 15.845 47.3361 27.0492 47.3361Z" fill="white"/>
<path fill-rule="evenodd" clip-rule="evenodd" d="M11.8738 31.2049L9.18852 23.1148H11.541L12.941 27.7623L14.4902 23.0918H16.4066L17.9557 27.7623L19.3557 23.1148H21.6623L18.977 31.2049H17.0377L15.4197 26.5803L13.8131 31.2049H11.8738ZM22.5459 31.1475V23.1148H29.0066V25.0082H24.7492V26.2246H28.6049V27.9803H24.7492V29.2541H29.0639V31.1475H22.5459ZM32.1623 31.1475V25.0656H29.7525V23.1148H36.7984V25.0656H34.3885V31.1475H32.1623ZM37.7738 31.1475V23.1148H40V26.1213H42.8574V23.1148H45.0836V31.1475H42.8574V28.0951H40V31.1475H37.7738Z" fill="black"/>
<path d="M1.94582 20.6985C1.37896 20.4151 1.14919 19.7258 1.43262 19.1589C1.71605 18.5921 2.40535 18.3623 2.97221 18.6457L6.2509 20.2851C6.81776 20.5685 7.04753 21.2578 6.7641 21.8247C6.48067 22.3915 5.79137 22.6213 5.22451 22.3379L1.94582 20.6985Z" fill="black"/>
<path d="M1.56832 26.1349C0.992873 25.8694 0.741674 25.1876 1.00725 24.6121C1.27282 24.0367 1.9546 23.7855 2.53004 24.0511L5.80873 25.5642C6.38417 25.8298 6.63537 26.5116 6.3698 27.087C6.10423 27.6625 5.42245 27.9137 4.847 27.6481L1.56832 26.1349Z" fill="black"/>
</g>
<defs>
<clipPath id="clip0_2_80">
<rect width="50" height="50" fill="white"/>
</clipPath>
</defs>
</svg>
